<svg width="20" height="17" viewBox="0 0 20 17" fill="none" xmlns="http://www.w3.org/2000/svg">
<path d="M1 16H2.8M2.8 16H12.7M2.8 16V10.7202C2.8 10.2276 2.8 9.98124 2.8567 9.75153C2.90695 9.54794 2.98966 9.35485 3.10146 9.17985C3.22755 8.98251 3.40402 8.81727 3.75537 8.48847L5.82679 6.54997C6.50605 5.9143 6.84594 5.59622 7.23024 5.47556C7.56904 5.36917 7.93063 5.36917 8.26943 5.47556C8.65406 5.59632 8.9944 5.91456 9.6748 6.5513L11.7448 8.48847C12.0965 8.81764 12.2721 8.9824 12.3982 9.17985C12.51 9.35485 12.5926 9.54794 12.6429 9.75153C12.6996 9.98124 12.7 10.2276 12.7 10.7202V16M12.7 16H17.2M17.2 16H19M17.2 16V3.9971C17.2 2.94906 17.2 2.42425 17.004 2.02356C16.8314 1.67076 16.5553 1.38413 16.2167 1.20436C15.8316 1 15.3283 1 14.3202 1H8.38018C7.37208 1 6.86766 1 6.48262 1.20436C6.14393 1.38413 5.86876 1.67076 5.69619 2.02356C5.5 2.42464 5.5 2.95008 5.5 4.00018V6.62518" stroke="#0C0C0C" stroke-width="2" stroke-linecap="round" stroke-linejoin="round"/>
</svg>
