<svg width="20" height="20" viewBox="0 0 20 20" fill="none" xmlns="http://www.w3.org/2000/svg">
<path d="M1 0.244999C0.447715 0.244999 0 0.692714 0 1.245C0 1.79728 0.447715 2.245 1 2.245V0.244999ZM3 1.245L3.99705 1.1683C3.95698 0.647305 3.52254 0.244999 3 0.244999V1.245ZM19 4.245L19.9939 4.35543C20.0253 4.07273 19.9348 3.79002 19.7451 3.57808C19.5554 3.36613 19.2844 3.245 19 3.245V4.245ZM3.23077 4.245L2.23371 4.3217L3.23077 4.245ZM16.3387 13.3637L16.4099 14.3611L16.3387 13.3637ZM5.98405 14.1033L5.9128 13.1058L5.98405 14.1033ZM1 2.245H3V0.244999H1V2.245ZM6.05529 15.1007L16.4099 14.3611L16.2674 12.3662L5.9128 13.1058L6.05529 15.1007ZM19.1778 11.7L19.9939 4.35543L18.0061 4.13457L17.19 11.4792L19.1778 11.7ZM2.00295 1.3217L2.23371 4.3217L4.22782 4.1683L3.99705 1.1683L2.00295 1.3217ZM2.23371 4.3217L2.85039 12.3385L4.8445 12.1851L4.22782 4.1683L2.23371 4.3217ZM19 3.245H3.23077V5.245H19V3.245ZM16.4099 14.3611C17.8537 14.258 19.018 13.1387 19.1778 11.7L17.19 11.4792C17.1368 11.9587 16.7487 12.3318 16.2674 12.3662L16.4099 14.3611ZM5.9128 13.1058C5.36404 13.145 4.88669 12.7336 4.8445 12.1851L2.85039 12.3385C2.97697 13.984 4.40903 15.2183 6.05529 15.1007L5.9128 13.1058Z" fill="#0C0C0C"/>
<rect x="6.5" y="18.745" width="0.01" height="0.01" stroke="#0C0C0C" stroke-width="2" stroke-linejoin="round"/>
<rect x="15.5" y="18.745" width="0.01" height="0.01" stroke="#0C0C0C" stroke-width="2" stroke-linejoin="round"/>
</svg>
