<svg width="1920" height="773" viewBox="0 0 1920 773" fill="none" xmlns="http://www.w3.org/2000/svg">
<ellipse cx="1193.92" cy="39.941" rx="28.5" ry="28" transform="rotate(133.08 1193.92 39.941)" fill="#E86535"/>
<ellipse cx="28.5" cy="28" rx="28.5" ry="28" transform="matrix(0.683024 0.730396 0.730396 -0.683024 686.553 38.2493)" fill="#E86535"/>
<ellipse cx="1194.5" cy="41" rx="28.5" ry="28" fill="#E86535"/>
<ellipse cx="28.5" cy="28" rx="28.5" ry="28" transform="matrix(-1 0 0 1 754.388 13)" fill="#E86535"/>
<ellipse cx="28.5" cy="28" rx="28.5" ry="28" transform="matrix(0.683024 0.730396 0.730396 -0.683024 -54.9307 730.455)" fill="#E86535"/>
<ellipse cx="1935.4" cy="732.147" rx="28.5" ry="28" transform="rotate(133.08 1935.4 732.147)" fill="#E86535"/>
<circle cx="725.5" cy="40.5" r="28.5" fill="#E86535"/>
<line x1="726" y1="40" x2="1195" y2="40" stroke="#E86535" stroke-width="2"/>
<ellipse cx="960.5" cy="548" rx="28.5" ry="28" fill="#E86535"/>
<ellipse cx="28.5" cy="28" rx="28.5" ry="28" transform="matrix(0.683024 0.730396 0.730396 -0.683024 155.553 213.249)" fill="#E86535"/>
<ellipse cx="1724.92" cy="214.941" rx="28.5" ry="28" transform="rotate(133.08 1724.92 214.941)" fill="#E86535"/>
<ellipse cx="28.5" cy="28" rx="28.5" ry="28" transform="matrix(0.683024 0.730396 0.730396 -0.683024 155.553 213.249)" fill="#E86535"/>
<ellipse cx="28.5" cy="28" rx="28.5" ry="28" transform="matrix(-1 0 0 1 223.388 188)" fill="#E86535"/>
<ellipse cx="1404.4" cy="557.147" rx="28.5" ry="28" transform="rotate(133.08 1404.4 557.147)" fill="#E86535"/>
<ellipse cx="28.5" cy="28" rx="28.5" ry="28" transform="matrix(0.683024 0.730396 0.730396 -0.683024 476.069 555.455)" fill="#E86535"/>
<circle cx="1725.11" cy="214.933" r="28.5" transform="rotate(133.08 1725.11 214.933)" fill="#E86535"/>
<circle cx="28.5" cy="28.5" r="28.5" transform="matrix(0.683024 0.730396 0.730396 -0.683024 155 213.582)" fill="#E86535"/>
<line x1="720.908" y1="40.5809" x2="954.908" y2="547.581" stroke="#E86535" stroke-width="2"/>
<line x1="1728.18" y1="211.523" x2="1198.04" y2="36.1428" stroke="#E86535" stroke-width="2"/>
<line y1="-1" x2="558.395" y2="-1" transform="matrix(0.949397 -0.31408 -0.31408 -0.949397 191.892 210.574)" stroke="#E86535" stroke-width="2"/>
<line y1="-1" x2="558.395" y2="-1" transform="matrix(0.949397 -0.31408 -0.31408 -0.949397 -339.108 385.574)" stroke="#E86535" stroke-width="2"/>
<line x1="2259.18" y1="386.523" x2="1729.04" y2="211.143" stroke="#E86535" stroke-width="2"/>
<line x1="1725.13" y1="215.639" x2="1404.79" y2="558.195" stroke="#E86535" stroke-width="2"/>
<line y1="-1" x2="469" y2="-1" transform="matrix(0.683024 0.730396 0.730396 -0.683024 195.989 214.956)" stroke="#E86535" stroke-width="2"/>
<line x1="1199.91" y1="41.4191" x2="965.908" y2="548.419" stroke="#E86535" stroke-width="2"/>
<line x1="1400.4" y1="560.81" x2="1189.92" y2="43.6047" stroke="#E86535" stroke-width="2"/>
<line y1="-1" x2="558.395" y2="-1" transform="matrix(0.376943 -0.926236 -0.926236 -0.376943 519.06 560.434)" stroke="#E86535" stroke-width="2"/>
<line y1="-1" x2="558.395" y2="-1" transform="matrix(0.376943 -0.926236 -0.926236 -0.376943 -11.9404 735.434)" stroke="#E86535" stroke-width="2"/>
<line x1="1931.4" y1="735.81" x2="1720.92" y2="218.605" stroke="#E86535" stroke-width="2"/>
</svg>
