<svg width="35" height="35" viewBox="0 0 35 35" fill="none" xmlns="http://www.w3.org/2000/svg">
<path d="M26.2578 2.34906C22.2782 0.0486996 17.5533 -0.593539 13.104 0.561122C8.65481 1.71578 4.8385 4.57462 2.47975 8.51991C0.120998 12.4652 -0.590789 17.1801 0.498189 21.6459C1.58717 26.1117 4.38947 29.9697 8.29957 32.3863L15.7846 20.2755C15.0556 19.825 14.5331 19.1056 14.33 18.273C14.127 17.4404 14.2597 16.5613 14.6995 15.8257C15.1393 15.0901 15.8508 14.5571 16.6804 14.3418C17.5099 14.1265 18.3909 14.2462 19.1329 14.6751L26.2578 2.34906Z" fill="#0C0C0C"/>
<path d="M8.81178 32.5681C12.7722 34.8638 17.4767 35.509 21.9089 34.3645C26.3411 33.2199 30.145 30.3775 32.4987 26.4514C34.8525 22.5253 35.567 17.8307 34.4878 13.3821C33.4087 8.93356 30.6227 5.08816 26.7317 2.67685L19.2631 14.7285C19.9886 15.1781 20.508 15.895 20.7092 16.7245C20.9104 17.5539 20.7772 18.4292 20.3384 19.1612C19.8995 19.8932 19.1903 20.4232 18.3639 20.6366C17.5375 20.85 16.6604 20.7297 15.922 20.3017L8.81178 32.5681Z" fill="#E86535"/>
<circle cx="17.5" cy="30.5" r="1.5" fill="#0C0C0C"/>
<circle cx="17.5" cy="3.5" r="1.5" fill="#E86535"/>
</svg>
